<svg
  xmlns="http://www.w3.org/2000/svg"
  viewBox="0 0 1215 1763"
  fill="white"
 
>
  <path d="M131.287 1.99c0 1.067 2.667 8.8 6 17.066 3.334 8.134 6.667 18.534 7.334 22.934 1.466 9.2 1.6 36.267.133 70.667-1.333 33.6 1.333 47.333 13.067 64.4 2.933 4.4 9.2 16.4 13.866 26.666 4.8 10.4 11.467 23.867 14.934 29.867 3.6 6.133 8.533 14.933 11.066 19.733 2.667 4.667 4.934 7.867 5.334 6.934.266-1.067 3.6.8 8.666 4.8 4.534 3.6 19.067 14.266 32.267 23.6 26.667 19.066 40.133 31.733 55.067 51.466 17.866 24 38.4 60.934 39.866 71.867.667 4.4.267 5.2-4.666 9.2-5.867 4.533-7.6 7.867-7.067 14.133.267 4.934 2.533 8.4 12.667 19.334 13.466 14.266 14.666 17.066 15.2 33.066.266 12.134.8 14.667 4.133 21.334 4.933 9.6 14.4 20.133 29.6 32.933 14.667 12.267 18.533 14.8 39.6 25.6 12.267 6.267 15.467 8.4 12.667 8.4-6.134-.133-26-4.8-34.667-8.4-4.4-1.733-19.867-6.667-34.267-10.933l-26.266-7.6-11.6 1.6c-14.667 2.133-25.6 5.466-34.8 10.8-5.334 3.066-6.667 4.4-5.334 5.333 1.067.667 9.6 1.2 19.067 1.2 19.2 0 24.8 1.6 32.133 9.467l4 4-7.866-3.6c-8.4-3.867-8.534-3.867-30.8.8-6.8 1.466-14.534.933-24-1.734-2.934-.666-11.334-1.2-18.667-1.066-18.133.4-45.467-3.334-101.333-14l-47.067-8.934-39.2 12.267c-25.6 8-43.733 14.533-52.8 18.933-7.466 3.734-16.8 7.734-20.667 9.067-7.2 2.533-9.2 5.867-3.866 6.533 1.6.267 12.133-2.8 23.333-6.666l20.267-7.067h24.666c29.067 0 39.467 1.867 56.4 10.267 9.2 4.666 13.2 7.866 26.267 21.2 16.267 16.666 22.4 21.2 28.4 21.2 2 0 8-2.4 13.333-5.334 12-6.533 24.667-9.6 38-9.066l10.267.4-7.333 1.733c-4 .933-10.4 3.067-14.267 4.667l-6.933 3.066 12.266 3.067c6.8 1.733 30.134 9.067 52 16.267 44 14.533 46 14.8 44.534 5.733-.667-3.733-.134-4.933 2.666-7.2 1.867-1.467 4.667-2.667 6.134-2.667 5.2 0 25.466 6.934 52.933 18 41.867 16.8 60.267 21.467 81.067 20.4 14-.666 20.533-3.333 31.6-12.8 6.933-6 26.4-17.6 29.466-17.6.667 0-3.466 2.667-9.066 6-5.734 3.334-14.267 9.734-19.067 14.134-10.4 9.733-17.467 23.066-22.667 42.533-4.8 18-10 27.467-18.4 34.133-3.866 3.067-18.933 14-33.6 24.534-24 17.066-28.266 19.6-42.666 25.2-14.134 5.466-15.334 6.133-11.334 6.533 7.334.8 29.2-2.267 33.6-4.533 5.2-2.667 6.267-1.6 1.467 1.866-12 8.4-30.667 13.867-45.2 13.334-6.8-.267-10.4.266-12.667 1.733-4.533 2.933-11.6 5.2-16.4 5.2-7.466.133-15.066 4.533-18.4 10.933-2.8 5.334-3.066 7.334-3.2 29.734 0 20.666-.4 25.466-3.066 34.666-5.067 18.267-14.4 40-32.934 76.667-9.866 19.6-17.866 36.53-17.866 37.73 0 1.34.533 3.34 1.2 4.67.666 1.2 1.866 17.2 2.666 35.6 2.4 55.33 7.6 85.73 21.2 124 12 33.73 14.267 39.33 16.134 40 4.533 1.73 4.266-2.13-1.067-18.27-9.067-27.33-8.8-47.33 1.2-114l5.067-33.73 28.8-46.27c39.6-63.997 56.666-90.263 64-98.53 8.933-10.267 28.666-22.667 63.2-40.133 34.4-17.334 36.266-18.8 71.066-53.734l20.8-20.8-3.466 9.467c-2.934 8.267-3.334 12-3.867 32.267-.4 17.2 0 26.933 1.733 39.2 3.734 26.266 1.467 41.733-9.6 65.066-11.733 24.8-11.733 24.4 1.2 25.467l8.4.667-.133 4.4c-.133 2.4-1.867 8.266-3.733 13.066-6.667 16.397-5.734 30.537 2.8 48.137l3.733 7.6.8-14.14c.667-11.86 1.467-15.46 4.8-22.8 4.267-8.797 12-18.663 16.933-21.197 2.4-1.2 2.267-.8-.666 2.4-4.934 5.467-7.734 11.467-9.734 20.937-2.4 11.2.667 51.6 4.667 61.73 5.6 14.13 6.8 21.2 7.467 43.2.666 18.27.266 25.47-2.134 42-5.6 38.8-10.933 60-20.933 83.33-4.8 11.2-5.733 27.34-2.8 46.14 2.933 18.4 6.8 29.86 12.667 37.73 2.666 3.73 8.666 12.93 13.333 20.4 4.667 7.6 11.867 18.67 16.133 24.53l7.734 10.94 1.6 23.73c.8 13.2 2.133 39.73 2.8 59.2.8 19.47 1.866 44 2.666 54.67.667 10.66 1.867 35.46 2.667 55.33 4.667 121.2 6.933 144.93 15.467 164.27 2.933 6.8 19.066 28.93 20.266 27.86.267-.4-.666-2.26-2.133-4.4-8-11.33-13.333-46.66-11.867-79.06 1.467-33.87 14.534-74 40.8-126.67 13.6-27.2 23.867-44.8 34.267-58.8 9.733-13.07 13.733-21.33 13.867-27.6 0-5.87-1.6-8.67-9.867-16.8-9.067-8.93-10.667-14.4-10.4-33.47.267-12.8 1.6-20.8 11.067-64.13l10.8-49.33-11.067-14c-6.133-7.6-12.667-15.74-14.267-17.87l-3.2-4-3.333 4c-10 12.13-15.467 23.73-17.333 37.33l-.8 6.67-1.067-5.33c-4-20.54 3.2-38.67 24.4-61.2 6-6.54 11.6-12.67 12.133-13.74.667-1.06-.533-14.66-2.933-32.13-12.533-92.4-12.267-108.4 3.067-147.6 3.333-8.53 6.133-16.67 6.133-18.13 0-1.47-3.467-9.6-7.867-18.27-11.2-22.4-13.066-28.933-15.466-53.067-2.534-25.333-6-43.2-11.2-58.133-2.267-6-3.734-11.2-3.467-11.467.267-.266 4.4 7.467 9.2 17.2 8.933 18.267 14.4 35.734 16.267 51.734.4 4.533 1.333 8.533 1.866 8.8 1.734 1.066 3.067-21.6 2.267-38.667-.4-8.8-2.133-21.733-3.6-28.667-5.467-24.933-6.8-34.4-8.133-58.133-1.334-25.733-3.334-36.4-10.267-54.4-5.2-13.333-3.333-11.733 13.867 12.267 22 30.4 34.266 40.533 52.133 43.066 4.8.667 10 1.6 11.6 2 2.667.667 2.8.134 3.2-11.733.133-6.8.8-14.267 1.333-16.4 1.067-3.6 1.2-3.2 2 4 .934 9.2 6.4 28.667 10.934 39.333 1.733 4 6 14.267 9.6 22.667 3.466 8.4 7.066 16.267 7.733 17.467.8 1.333 7.067 6.666 14 11.866 15.6 12 21.333 17.2 28.667 26.8 8.133 10.4 14.266 22.267 20 38.534 6.133 17.333 12.666 30.533 19.466 39.603 5.334 7.06 8.934 10.26 23.734 21.33 19.466 14.4 39.333 49.2 45.733 80.27 3.733 18.13 2.667 37.73-3.467 66-3.466 15.86-4.4 21.73-3.2 23.06 1.067 1.2 1.867 1.34 3.067.4 2.267-1.86 18.267-39.33 22-51.33 9.2-29.73 12-62.4 9.333-107.2-.933-16.53-1.866-32.53-2.133-35.47-.4-7.2-3.333-14.26-22-52.93-25.867-53.733-34.4-76.133-37.867-100.133-1.2-7.467-2.4-14.534-2.666-15.734-.4-1.066-11.734-12.4-25.334-25.2-20.266-19.066-39.6-39.2-43.466-45.466-.4-.8-9.734-3.6-20.667-6.4-43.333-11.2-54.4-19.334-74.4-54.267-14-24.4-28.667-46.133-37.2-55.067l-6.933-7.2 11.333 7.734c6.267 4.266 14.133 9.733 17.6 12.133 10.8 7.333 20 10.133 36.533 10.8 10.267.533 15.067.267 15.734-.8.533-.8.266-1.467-.534-1.467-3.6 0-21.333-9.466-26.4-14-3.066-2.666-7.333-8.266-9.6-12.4l-4.133-7.6 7.067 6.934c8.4 8.266 14.266 11.066 33.066 15.733 7.734 1.867 16.934 4.4 20.534 5.6 8 2.533 9.333 2.267 40.8-11.2 25.466-10.933 48.4-19.067 53.6-19.067 3.733 0 9.866 5.734 8.4 8-1.334 2.267.4 7.6 2.8 8.534 1.2.4 18.133-4.534 37.6-11.067 52.933-17.6 77.729-24 85.329-22.133 1.87.4 5.07 2 7.07 3.466 8.8 6.267 19.07 1.334 40.53-19.466 19.47-18.934 34.54-29.334 50.67-35.067l12-4.4 22.67 2.133c23.6 2.134 36.93 5.2 47.33 10.8l6 3.2-8.53-8c-9.6-8.933-19.87-14.666-32.27-17.733-51.2-12.8-70.27-15.333-94.4-12.933-19.07 2-30.4 4.4-52.53 11.466-31.069 9.734-51.203 12.667-68.803 10-13.733-2.133-21.2-5.066-40-16-15.466-8.8-17.066-9.466-22.666-8.8-3.467.4-16.934 1.867-30.134 3.334-21.2 2.4-28.266 3.466-45.333 7.333-4 .8-4 .8 1.333-3.467 10.534-8.4 26.934-26.4 34.934-38 14.266-20.933 28.4-49.6 37.066-75.6 5.067-15.066 4.8-18.666-2.133-25.733-5.2-5.467-5.067-6.4 5.6-27.467 20.8-41.466 43.067-70.666 64.4-84.666 17.733-11.467 19.467-12.8 28.133-20.8 13.603-12.4 28.533-31.2 49.063-61.6 14.8-22 19.87-30.8 24-41.334 9.6-24.533 13.6-40.8 18.14-72 3.46-24.666 8.93-84.266 7.73-85.6-2.4-2.267-3.73 3.867-8.8 39.334-6.13 41.733-9.73 56-19.6 74.933-3.2 6.267-8.8 15.2-12.4 20-9.47 12.533-27.6 29.6-40.8 38.133-19.066 12.4-67.199 34.534-97.999 44.934-19.734 6.666-31.2 9.066-51.334 10.4-15.866 1.066-20.4 1.866-22.133 3.6-1.2 1.2-4.133 8-6.533 14.933-8.8 25.2-24.4 51.067-57.467 95.333-9.867 13.2-18.4 24.8-18.933 25.6-.667.934 1.866 11.2 5.6 22.667 3.6 11.6 7.333 24.933 8.133 29.467 2.133 10.933.933 31.733-2.4 42.266l-2.533 8 .666-8.666c.267-4.8-.4-14-1.6-20.667-2.133-12.8-7.333-31.333-8.666-31.333-.4.133-3.2 5.066-6 11.066-4.8 10-7.2 12.8-26.8 32.267-22.267 22-26.134 26.8-34.4 42.667-7.6 14.4-16.267 24-44.8 49.066l-26.267 23.2-8.267-6.266c-8.8-6.667-21.2-17.734-55.6-50-11.733-11.067-27.6-25.6-35.066-32.534-10.4-9.466-17.067-17.2-27.467-31.866l-13.867-19.334-.8-9.466c-.4-5.2-.533-14.934-.266-21.467l.4-12-4.934-6.667c-9.333-12.4-18.266-26.933-21.2-34.8-4.8-12.8-18.133-39.6-24.933-50.133-10.133-15.6-18.533-32.667-23.333-47.467-2.4-7.466-4.934-13.6-5.6-13.6-.667 0-.934 10.667-.534 24.267.534 27.333 1.734 32.533 12.4 54.133 4.934 10.267 5.2 10.934 1.734 6.8-5.467-6.666-15.6-24-19.2-33.066-3.867-9.6-5.734-20-6.8-40.267l-.934-15.467-17.6-1.6c-37.066-3.2-56.933-11.6-91.333-38.533-17.2-13.467-25.067-17.6-33.467-17.6h-6.4l-6.266-12c-5.867-11.467-14.534-21.333-18.667-21.333-3.067 0-10-8.267-14.4-17.2-5.2-10.534-10.4-23.734-24.8-64.8-10.8-30.534-24.667-66.134-29.6-75.734-2.533-5.066-5.067-6.533-5.067-2.933Z" />
</svg>

