<?xml version="1.0" standalone="no"?>
<!DOCTYPE svg PUBLIC "-//W3C//DTD SVG 20010904//EN"
 "http://www.w3.org/TR/2001/REC-SVG-20010904/DTD/svg10.dtd">
<svg version="1.0" xmlns="http://www.w3.org/2000/svg"
 width="759.000000pt" height="826.000000pt" viewBox="0 0 759.000000 826.000000"
 preserveAspectRatio="xMidYMid meet">

<g transform="translate(0.000000,826.000000) scale(0.100000,-0.100000)"
fill="#000000" stroke="none">
<path d="M1143 7295 c-3 -9 -3 -18 0 -22 10 -10 37 6 37 22 0 20 -29 20 -37 0z"/>
<path d="M2180 7146 c0 -9 7 -19 15 -23 25 -9 27 2 5 22 -18 17 -20 17 -20 1z"/>
<path d="M1158 6919 c-10 -17 -18 -36 -18 -43 0 -20 33 -45 67 -52 26 -5 33
-1 52 24 11 17 21 39 21 49 0 29 -32 53 -71 53 -27 0 -37 -6 -51 -31z"/>
<path d="M1317 6498 c-13 -10 -32 -29 -41 -43 -14 -22 -15 -29 -3 -58 39 -92
114 -90 155 6 11 26 10 32 -13 59 -14 16 -25 33 -25 38 0 17 -48 16 -73 -2z"/>
<path d="M274 6356 c-8 -22 3 -33 18 -18 9 9 9 15 0 24 -9 9 -13 7 -18 -6z"/>
<path d="M1990 6329 c0 -24 23 -21 28 4 2 10 -3 17 -12 17 -10 0 -16 -9 -16
-21z"/>
<path d="M360 6310 c0 -5 5 -10 10 -10 6 0 10 5 10 10 0 6 -4 10 -10 10 -5 0
-10 -4 -10 -10z"/>
<path d="M2873 6233 c-7 -2 -13 -22 -13 -43 0 -37 2 -39 37 -46 29 -5 39 -3
50 11 16 23 17 57 1 73 -12 12 -52 15 -75 5z"/>
<path d="M5571 6229 c-60 -12 -112 -48 -136 -95 -11 -21 -29 -50 -41 -64 -25
-30 -37 -60 -24 -60 12 0 9 -22 -4 -32 -5 -3 -11 -24 -13 -46 -3 -36 0 -43 37
-74 22 -19 40 -39 40 -45 0 -20 78 -70 144 -92 81 -27 139 -25 185 8 17 12 34
34 37 49 4 15 27 51 52 80 24 29 42 56 38 59 -3 3 9 17 26 30 31 22 31 23 8
23 -23 0 -23 0 -4 15 19 14 19 14 -2 15 -16 0 -24 12 -38 56 -19 59 -54 104
-81 104 -9 0 -14 4 -10 9 3 5 -4 12 -15 16 -11 4 -18 11 -15 16 4 5 -3 9 -15
9 -12 0 -29 4 -38 9 -29 15 -85 19 -131 10z"/>
<path d="M1806 6060 c-26 -32 -31 -44 -40 -112 -4 -32 -1 -38 17 -44 12 -4 25
-11 28 -17 4 -5 30 -11 57 -12 28 -2 56 -6 62 -10 16 -10 40 2 40 20 0 9 7 39
16 66 13 40 14 55 5 75 -6 14 -9 29 -6 34 8 13 -4 17 -81 24 -71 7 -72 7 -98
-24z"/>
<path d="M2041 5901 c-25 -25 -28 -76 -5 -85 9 -3 29 -6 45 -6 24 0 31 6 44
37 18 42 10 57 -37 68 -19 5 -32 1 -47 -14z"/>
<path d="M740 5874 c0 -8 5 -12 10 -9 6 4 8 11 5 16 -9 14 -15 11 -15 -7z"/>
<path d="M3123 5815 c-3 -9 -3 -18 0 -22 10 -10 37 6 37 22 0 20 -29 20 -37 0z"/>
<path d="M2002 5695 c-36 -30 -64 -87 -56 -110 4 -9 2 -20 -5 -24 -8 -5 -6
-13 6 -27 40 -43 103 -84 129 -84 44 0 91 39 119 99 24 48 24 55 10 71 -8 9
-15 21 -15 27 0 5 -18 24 -39 41 -51 41 -106 44 -149 7z"/>
<path d="M4162 5663 c2 -10 14 -20 27 -21 19 -3 22 0 17 13 -3 9 -6 19 -6 21
0 2 -9 4 -21 4 -14 0 -19 -5 -17 -17z"/>
<path d="M2690 5662 c-19 -5 -40 -32 -40 -49 0 -16 52 -17 68 -1 7 7 12 22 12
33 0 21 -11 26 -40 17z"/>
<path d="M1350 5563 c-57 -10 -106 -91 -93 -153 5 -26 8 -28 47 -22 66 8 84
19 106 61 28 56 27 107 -2 115 -13 3 -25 5 -28 5 -3 -1 -16 -4 -30 -6z"/>
<path d="M4765 5545 c-54 -25 -73 -48 -67 -81 12 -68 51 -103 114 -104 41 0
51 5 87 39 l41 40 -34 54 c-46 71 -77 82 -141 52z"/>
<path d="M1066 5531 c-11 -18 6 -41 30 -41 25 0 28 7 18 34 -7 17 -39 22 -48
7z"/>
<path d="M5290 5520 c0 -5 5 -10 10 -10 6 0 10 5 10 10 0 6 -4 10 -10 10 -5 0
-10 -4 -10 -10z"/>
<path d="M2488 5493 c-19 -5 -24 -38 -9 -61 11 -18 51 -11 65 11 20 32 -13 62
-56 50z"/>
<path d="M6332 5464 c-7 -7 -15 -27 -18 -44 -4 -16 -10 -27 -15 -24 -5 3 -9
-5 -9 -18 0 -18 2 -20 9 -9 8 12 11 9 17 -13 5 -20 9 -25 18 -16 8 8 7 13 -4
20 -9 6 -10 10 -3 10 6 0 19 -10 27 -22 15 -21 16 -21 16 -3 0 11 4 16 8 10
10 -14 35 -18 27 -5 -4 6 1 20 10 30 11 12 13 20 5 25 -6 4 -8 15 -5 26 5 13
2 19 -10 19 -8 0 -26 6 -38 14 -19 12 -24 12 -35 0z"/>
<path d="M3138 5439 c-10 -17 -18 -37 -18 -44 0 -20 49 -55 76 -55 25 0 64 46
64 77 0 29 -32 53 -71 53 -27 0 -37 -6 -51 -31z"/>
<path d="M4490 5385 c0 -8 5 -15 10 -15 6 0 10 7 10 15 0 8 -4 15 -10 15 -5 0
-10 -7 -10 -15z"/>
<path d="M2500 5371 c0 -11 5 -23 11 -27 14 -8 29 14 22 33 -8 20 -33 16 -33
-6z"/>
<path d="M1152 5362 c-7 -5 -10 -16 -6 -26 10 -25 59 -18 59 9 0 22 -31 31
-53 17z"/>
<path d="M2390 5360 c0 -5 7 -10 15 -10 8 0 15 5 15 10 0 6 -7 10 -15 10 -8 0
-15 -4 -15 -10z"/>
<path d="M3288 5283 c-21 -26 -16 -46 14 -57 30 -11 58 5 58 33 0 39 -46 54
-72 24z"/>
<path d="M1831 5266 c-18 -20 -22 -33 -19 -80 l3 -56 54 -26 c30 -14 60 -23
67 -20 23 9 42 50 46 95 3 42 1 46 -40 78 -52 39 -80 42 -111 9z"/>
<path d="M5951 5263 c-14 -11 -24 -34 -28 -58 -4 -36 -2 -42 25 -57 17 -10 44
-18 61 -18 26 0 33 6 46 36 19 46 19 57 -2 83 -25 30 -74 37 -102 14z"/>
<path d="M6157 5273 c-14 -13 -6 -33 13 -33 13 0 20 7 20 20 0 19 -20 27 -33
13z"/>
<path d="M1304 5255 c-4 -9 -2 -21 4 -27 16 -16 47 -5 47 17 0 26 -42 34 -51
10z"/>
<path d="M3940 5250 c0 -5 5 -10 11 -10 5 0 7 5 4 10 -3 6 -8 10 -11 10 -2 0
-4 -4 -4 -10z"/>
<path d="M1468 5224 c-26 -13 -50 -28 -53 -34 -12 -19 6 -86 29 -111 12 -13
26 -33 31 -44 8 -20 9 -20 12 2 3 13 14 24 31 28 15 4 33 12 40 18 40 33 31
109 -16 144 l-28 20 -46 -23z"/>
<path d="M2526 5211 c-7 -11 3 -41 14 -41 13 0 32 29 25 40 -8 12 -32 13 -39
1z"/>
<path d="M4080 5214 c0 -6 -12 -9 -28 -6 -26 3 -28 0 -45 -57 -18 -62 -44 -88
-73 -77 -19 7 -74 -20 -96 -48 -10 -11 -18 -32 -18 -45 0 -27 46 -101 63 -101
5 0 4 -7 -3 -15 -10 -12 -8 -16 13 -24 14 -6 28 -18 31 -29 4 -10 18 -25 31
-32 27 -15 31 -30 13 -48 -6 -6 -12 -35 -12 -64 -1 -44 2 -55 19 -64 24 -13
70 6 96 39 9 11 21 17 27 13 8 -5 0 -19 -22 -40 -34 -35 -40 -68 -22 -124 7
-20 74 -64 93 -61 35 6 41 -1 32 -33 -8 -29 -6 -36 16 -55 38 -33 62 -29 80
13 11 27 12 39 3 54 -15 23 -56 43 -71 33 -7 -4 -5 4 5 18 9 14 19 47 23 73 7
45 8 46 26 30 23 -21 24 -38 4 -57 -13 -13 -13 -19 0 -50 17 -41 59 -77 89
-77 32 0 101 52 101 75 0 13 13 26 37 37 20 10 60 45 87 78 42 50 50 67 48 95
-1 19 -8 37 -14 40 -18 6 -16 25 2 25 9 0 12 6 9 15 -4 8 -9 13 -13 11 -3 -2
-17 12 -31 32 -47 67 -99 112 -129 112 -26 0 -30 5 -41 48 -15 65 -62 145
-103 176 -19 14 -38 26 -43 26 -5 0 -36 14 -69 31 -37 20 -60 28 -63 20 -5
-16 -23 -14 -38 7 -7 9 -14 12 -14 6z"/>
<path d="M3846 5185 c-7 -20 6 -39 22 -34 7 3 6 13 -2 28 -12 21 -14 22 -20 6z"/>
<path d="M2570 5156 c0 -30 30 -43 47 -21 16 23 5 45 -23 45 -19 0 -24 -5 -24
-24z"/>
<path d="M5110 5155 c-11 -13 -11 -18 0 -28 10 -9 11 -9 6 1 -4 7 -2 19 4 27
7 8 10 15 7 15 -2 0 -10 -7 -17 -15z"/>
<path d="M2642 5123 c5 -25 28 -28 28 -4 0 12 -6 21 -16 21 -9 0 -14 -7 -12
-17z"/>
<path d="M3197 5067 c-55 -51 -51 -84 12 -128 28 -18 56 -44 62 -56 7 -13 23
-26 35 -29 12 -3 25 -12 28 -20 7 -17 45 -19 47 -1 1 6 3 19 3 27 1 8 10 33
19 54 17 38 17 40 -2 60 -10 12 -21 33 -25 48 -8 34 -56 69 -105 75 -32 4 -42
1 -74 -30z"/>
<path d="M1160 5070 c0 -5 7 -10 15 -10 8 0 15 5 15 10 0 6 -7 10 -15 10 -8 0
-15 -4 -15 -10z"/>
<path d="M2700 5024 c-25 -40 -29 -87 -9 -111 10 -11 27 -14 67 -11 71 6 86
23 87 96 l0 57 -61 3 c-61 3 -62 3 -84 -34z"/>
<path d="M4844 5019 c-3 -6 -2 -15 2 -19 12 -12 38 5 30 19 -9 14 -23 14 -32
0z"/>
<path d="M1786 4973 c-12 -12 -6 -33 9 -33 8 0 15 6 15 14 0 17 -14 28 -24 19z"/>
<path d="M2267 4973 c-12 -12 -7 -60 7 -72 8 -7 27 -11 43 -9 24 3 28 8 31 37
2 20 -2 37 -10 42 -16 10 -62 12 -71 2z"/>
<path d="M6603 4973 c-22 -8 -15 -43 7 -43 13 0 20 7 20 19 0 22 -9 30 -27 24z"/>
<path d="M2542 4958 c-18 -18 -14 -53 9 -74 23 -21 47 -12 60 23 15 42 -38 82
-69 51z"/>
<path d="M3005 4920 c-3 -5 3 -10 14 -10 12 0 21 5 21 10 0 6 -6 10 -14 10 -8
0 -18 -4 -21 -10z"/>
<path d="M5414 4898 c-4 -7 -4 -10 1 -6 4 4 17 2 29 -4 19 -10 20 -10 7 5 -16
20 -27 21 -37 5z"/>
<path d="M5490 4894 c0 -5 18 -16 39 -25 30 -13 38 -14 35 -4 -3 7 -13 15 -22
18 -9 3 -25 8 -34 12 -10 4 -18 3 -18 -1z"/>
<path d="M2254 4876 c-8 -22 3 -33 18 -18 9 9 9 15 0 24 -9 9 -13 7 -18 -6z"/>
<path d="M3547 4844 c-4 -4 -7 -18 -7 -31 0 -21 4 -24 28 -21 21 2 27 8 27 28
0 18 -6 26 -20 28 -12 2 -24 0 -28 -4z"/>
<path d="M5600 4825 c13 -14 26 -25 28 -25 3 0 -5 11 -18 25 -13 14 -26 25
-28 25 -3 0 5 -11 18 -25z"/>
<path d="M2340 4830 c0 -5 5 -10 10 -10 6 0 10 5 10 10 0 6 -4 10 -10 10 -5 0
-10 -4 -10 -10z"/>
<path d="M4859 4763 c-24 -6 -32 -74 -11 -90 23 -19 79 -16 86 3 24 62 -12
104 -75 87z"/>
<path d="M3309 4733 c-33 -40 -77 -110 -84 -132 -6 -21 -5 -23 14 -18 15 4 21
1 21 -12 0 -26 40 -67 78 -79 40 -14 124 13 121 38 -1 8 0 22 3 30 27 81 27
77 -4 119 -47 64 -119 90 -149 54z"/>
<path d="M3562 4717 c-39 -47 -10 -105 46 -92 34 7 55 44 46 81 -5 20 -12 24
-44 24 -21 0 -42 -6 -48 -13z"/>
<path d="M3112 4688 c-6 -6 -8 -16 -5 -24 3 -8 -5 -16 -20 -19 -14 -4 -33 -15
-43 -26 -17 -18 -16 -21 2 -57 23 -44 66 -55 103 -25 20 16 21 23 13 60 -6 27
-6 45 1 52 5 5 7 16 4 24 -7 18 -42 28 -55 15z"/>
<path d="M3821 4681 c-17 -11 -6 -31 18 -31 23 0 31 9 24 26 -6 16 -22 18 -42
5z"/>
<path d="M2845 4659 c-4 -6 -5 -13 -2 -16 7 -7 27 6 27 18 0 12 -17 12 -25 -2z"/>
<path d="M2621 4628 c-17 -45 9 -78 59 -78 30 0 39 4 43 21 7 28 -7 65 -28 73
-35 13 -66 6 -74 -16z"/>
<path d="M3702 4638 c-16 -16 -15 -33 4 -48 22 -19 54 12 38 37 -14 22 -27 26
-42 11z"/>
<path d="M6870 4636 c0 -21 21 -31 31 -15 14 22 11 29 -11 29 -11 0 -20 -6
-20 -14z"/>
<path d="M3804 4603 c-48 -32 -75 -166 -36 -180 9 -4 20 -11 23 -16 4 -5 30
-11 57 -12 28 -2 56 -6 62 -10 20 -12 40 4 40 33 0 15 5 33 12 40 15 15 14
121 -3 135 -9 9 -145 17 -155 10z"/>
<path d="M7030 4595 c-26 -32 13 -81 48 -59 34 22 22 74 -18 74 -10 0 -23 -7
-30 -15z"/>
<path d="M1956 4534 c-26 -26 -20 -43 12 -35 17 5 28 15 30 29 4 26 -19 30
-42 6z"/>
<path d="M2207 4493 c-14 -13 -6 -33 12 -33 19 0 35 23 24 34 -8 8 -28 8 -36
-1z"/>
<path d="M2617 4494 c-16 -16 -7 -44 14 -44 15 0 20 5 17 22 -3 22 -19 33 -31
22z"/>
<path d="M2930 4470 c0 -5 5 -10 10 -10 6 0 10 5 10 10 0 6 -4 10 -10 10 -5 0
-10 -4 -10 -10z"/>
<path d="M3145 4452 c-3 -8 -1 -20 4 -25 13 -13 41 -1 41 17 0 20 -37 27 -45
8z"/>
<path d="M3455 4460 c3 -5 8 -10 11 -10 2 0 4 5 4 10 0 6 -5 10 -11 10 -5 0
-7 -4 -4 -10z"/>
<path d="M3516 4441 c-9 -16 -12 -32 -8 -35 3 -4 -1 -4 -11 0 -9 3 -29 3 -43
0 -20 -5 -25 -12 -22 -33 2 -14 15 -35 30 -46 22 -17 30 -18 43 -7 8 7 15 23
15 35 0 18 4 22 20 18 34 -9 70 5 63 25 -7 20 -53 72 -65 72 -4 0 -14 -13 -22
-29z"/>
<path d="M4021 4421 c-25 -25 -28 -76 -5 -85 9 -3 29 -6 45 -6 25 0 33 6 45
36 18 42 9 58 -38 69 -19 5 -32 1 -47 -14z"/>
<path d="M3042 4414 c-12 -8 -22 -26 -22 -39 0 -13 -6 -25 -12 -28 -10 -3 -10
-10 1 -30 18 -34 37 -35 45 -2 4 14 12 25 20 25 17 0 46 32 46 52 0 8 -11 20
-25 26 -32 15 -26 15 -53 -4z"/>
<path d="M2720 4394 c0 -8 5 -12 10 -9 6 4 8 11 5 16 -9 14 -15 11 -15 -7z"/>
<path d="M3325 4390 c-3 -5 -22 -10 -41 -10 -41 0 -46 -20 -10 -40 20 -10 24
-18 19 -40 -7 -39 25 -57 66 -36 53 28 50 136 -4 136 -13 0 -27 -4 -30 -10z"/>
<path d="M2767 4333 c-13 -12 -7 -23 13 -23 11 0 20 7 20 15 0 15 -21 21 -33
8z"/>
<path d="M3106 4314 c-7 -19 10 -44 30 -44 15 0 18 18 8 44 -8 21 -30 20 -38
0z"/>
<path d="M6810 4302 c-19 -12 -37 -28 -41 -34 -10 -16 9 -62 35 -87 19 -17 27
-19 55 -11 88 25 95 102 13 142 -24 13 -30 12 -62 -10z"/>
<path d="M7122 4284 c4 -21 22 -23 26 -1 2 10 -3 17 -13 17 -10 0 -15 -6 -13
-16z"/>
<path d="M6106 4273 c-6 -14 -5 -15 5 -6 7 7 10 15 7 18 -3 3 -9 -2 -12 -12z"/>
<path d="M3514 4245 c-9 -23 3 -45 24 -45 29 0 48 26 32 45 -7 8 -21 15 -32
15 -10 0 -21 -7 -24 -15z"/>
<path d="M3294 4225 c-8 -20 4 -35 27 -35 21 0 25 20 7 38 -16 16 -27 15 -34
-3z m23 -17 c-3 -8 -6 -5 -6 6 -1 11 2 17 5 13 3 -3 4 -12 1 -19z"/>
<path d="M3963 4194 c-30 -33 -43 -55 -43 -76 0 -16 -5 -38 -10 -49 -9 -16 -7
-19 9 -19 11 0 21 -3 23 -7 9 -22 90 -73 114 -73 44 0 91 39 119 98 l26 54
-20 31 c-34 54 -84 87 -132 87 -38 0 -48 -5 -86 -46z"/>
<path d="M2956 4218 c-9 -5 -20 -7 -25 -4 -5 4 -7 -12 -4 -35 l6 -41 -31 16
c-31 16 -32 16 -38 -9 -9 -38 2 -68 33 -87 15 -10 36 -23 45 -30 14 -10 24 -9
53 5 35 17 36 19 30 56 -4 24 -2 42 4 46 15 9 14 60 -1 72 -21 16 -54 21 -72
11z"/>
<path d="M6996 4221 c-4 -5 -2 -12 3 -15 5 -4 12 -2 15 3 4 5 2 12 -3 15 -5 4
-12 2 -15 -3z"/>
<path d="M3410 4205 c-7 -8 -9 -26 -6 -39 5 -21 10 -23 33 -17 20 5 28 14 28
31 0 29 -38 46 -55 25z"/>
<path d="M4670 4182 c-19 -5 -40 -32 -40 -49 0 -16 52 -17 68 -1 27 27 7 61
-28 50z"/>
<path d="M3193 4144 c-13 -14 -23 -32 -23 -40 0 -17 0 -17 -43 1 l-35 14 -25
-38 c-22 -33 -25 -44 -17 -72 5 -19 25 -46 43 -60 32 -26 34 -26 54 -9 12 9
25 31 30 49 4 17 11 31 16 31 4 0 18 0 31 0 23 0 24 -2 16 -31 -5 -17 -7 -43
-4 -59 6 -26 8 -28 48 -22 22 2 51 9 63 13 25 9 57 67 67 121 6 31 4 37 -15
43 -31 10 -91 -4 -117 -28 l-22 -21 6 47 c5 38 3 51 -11 67 -24 26 -35 25 -62
-6z"/>
<path d="M3645 4090 c-3 -5 -1 -10 4 -10 6 0 11 5 11 10 0 6 -2 10 -4 10 -3 0
-8 -4 -11 -10z"/>
<path d="M3574 4070 c-25 -10 -29 -15 -38 -52 -5 -21 -2 -28 14 -33 11 -3 20
-13 20 -21 0 -8 7 -14 15 -14 8 0 15 5 15 11 0 6 10 19 22 28 12 10 23 28 25
41 2 13 9 28 16 32 7 5 2 8 -15 8 -14 0 -32 2 -40 4 -7 3 -23 1 -34 -4z"/>
<path d="M6728 4054 c-54 -35 -56 -95 -7 -166 11 -14 19 -29 19 -32 0 -4 -21
-27 -46 -51 -41 -40 -45 -49 -43 -85 2 -22 -2 -45 -9 -52 -7 -7 -12 -22 -12
-33 0 -47 157 -84 227 -53 38 17 152 137 160 168 3 14 12 38 20 53 13 27 12
30 -19 59 -35 34 -93 68 -115 68 -7 0 -13 9 -13 19 0 11 -4 23 -10 26 -5 3
-10 21 -10 40 0 40 -5 44 -67 51 -35 3 -55 0 -75 -12z"/>
<path d="M3691 4048 c-1 -10 -7 -16 -13 -14 -7 1 -10 1 -5 -1 4 -3 5 -9 1 -14
-3 -5 0 -9 6 -9 13 0 24 25 17 42 -4 8 -6 7 -6 -4z"/>
<path d="M4454 4006 c-11 -30 1 -61 24 -64 30 -4 52 14 52 43 0 34 -64 51 -76
21z"/>
<path d="M7284 4009 c-8 -14 11 -33 25 -25 6 4 11 14 11 22 0 16 -26 19 -36 3z"/>
<path d="M3132 3882 c-7 -5 -10 -16 -6 -26 10 -25 59 -18 59 9 0 22 -31 31
-53 17z"/>
<path d="M4370 3880 c0 -5 7 -10 15 -10 8 0 15 5 15 10 0 6 -7 10 -15 10 -8 0
-15 -4 -15 -10z"/>
<path d="M5898 3864 c-16 -8 -28 -23 -28 -34 0 -10 -8 -34 -19 -52 -22 -38
-35 -98 -21 -98 5 0 15 -6 23 -14 25 -25 98 -29 137 -8 44 24 82 87 76 127 -2
17 1 38 6 49 7 13 7 16 -2 11 -18 -11 -80 4 -80 20 0 20 -56 19 -92 -1z"/>
<path d="M5272 3808 c-22 -27 -18 -52 10 -62 30 -11 58 5 58 33 0 36 -46 55
-68 29z"/>
<path d="M3820 3801 c-8 -6 -17 -8 -21 -6 -3 3 -6 -29 -5 -70 l0 -75 54 -25
c30 -14 61 -24 68 -21 24 9 46 55 48 98 1 38 -3 45 -42 75 -44 33 -75 40 -102
24z"/>
<path d="M3284 3775 c-4 -9 -2 -21 4 -27 16 -16 47 -5 47 17 0 26 -42 34 -51
10z"/>
<path d="M3448 3744 c-26 -13 -50 -28 -53 -34 -12 -19 6 -86 29 -111 12 -13
26 -33 31 -44 8 -20 9 -20 12 2 3 13 14 24 31 28 15 4 33 12 40 18 40 33 31
109 -16 144 l-28 20 -46 -23z"/>
<path d="M4506 3731 c-7 -11 3 -41 14 -41 13 0 32 29 25 40 -8 12 -32 13 -39
1z"/>
<path d="M4550 3676 c0 -28 28 -42 47 -23 19 19 5 47 -23 47 -19 0 -24 -5 -24
-24z"/>
<path d="M4622 3643 c5 -25 28 -28 28 -4 0 12 -6 21 -16 21 -9 0 -14 -7 -12
-17z"/>
<path d="M6020 3636 c-37 -18 -46 -28 -48 -53 -2 -24 3 -35 25 -51 33 -23 56
-17 96 26 32 35 35 77 8 92 -26 13 -29 13 -81 -14z"/>
<path d="M6187 3654 c-11 -11 3 -24 24 -24 12 0 19 5 17 13 -5 14 -31 21 -41
11z"/>
<path d="M6526 3644 c-9 -8 -16 -19 -16 -23 0 -13 24 -31 42 -31 23 0 42 35
25 47 -27 21 -36 23 -51 7z"/>
<path d="M5176 3586 c-54 -51 -50 -83 17 -129 28 -20 54 -32 55 -27 2 6 13 10
24 10 28 0 88 63 88 92 0 41 -66 88 -125 88 -13 0 -39 -15 -59 -34z"/>
<path d="M3140 3590 c0 -5 7 -10 15 -10 8 0 15 5 15 10 0 6 -7 10 -15 10 -8 0
-15 -4 -15 -10z"/>
<path d="M6188 3579 c-44 -25 -1 -107 50 -94 41 10 54 25 47 54 -4 14 -11 32
-17 38 -12 15 -56 16 -80 2z"/>
<path d="M4683 3551 c-33 -43 -38 -77 -18 -107 16 -24 21 -26 71 -22 73 6 88
23 89 96 l0 57 -60 3 c-57 3 -62 1 -82 -27z"/>
<path d="M6381 3493 c-16 -35 -14 -47 15 -74 l26 -24 19 24 c23 28 24 40 4 68
-22 32 -51 35 -64 6z"/>
<path d="M3766 3493 c-12 -12 -6 -33 9 -33 8 0 15 6 15 14 0 17 -14 28 -24 19z"/>
<path d="M4242 3479 c-7 -19 -9 -19 -21 -5 -14 17 -49 21 -66 8 -14 -10 -35
-49 -35 -66 0 -44 84 -43 106 2 10 20 12 21 24 7 8 -10 25 -15 44 -13 27 3 31
7 34 37 4 38 -9 51 -51 51 -19 0 -30 -6 -35 -21z m-36 -14 c9 -9 13 -23 9 -35
-5 -17 -9 -18 -28 -7 -12 7 -26 17 -30 22 -5 6 -7 -2 -4 -18 3 -22 2 -25 -9
-16 -14 12 -11 22 14 52 18 21 29 21 48 2z"/>
<path d="M4522 3478 c-18 -18 -14 -53 8 -73 23 -21 46 -14 62 20 9 21 8 28 -7
45 -20 23 -45 26 -63 8z"/>
<path d="M2510 3440 c0 -5 7 -10 16 -10 8 0 12 5 9 10 -3 6 -10 10 -16 10 -5
0 -9 -4 -9 -10z"/>
<path d="M4985 3440 c-3 -5 3 -10 14 -10 12 0 21 5 21 10 0 6 -6 10 -14 10 -8
0 -18 -4 -21 -10z"/>
<path d="M2392 3389 c-11 -18 -11 -24 4 -40 9 -10 23 -19 30 -19 14 0 29 54
19 70 -10 17 -39 11 -53 -11z"/>
<path d="M2766 3394 c-9 -8 -16 -24 -16 -33 0 -10 -8 -29 -19 -42 -21 -27 -17
-49 8 -49 9 0 26 -6 37 -14 20 -15 58 -12 82 7 15 12 29 1 34 -27 2 -12 -5
-24 -17 -30 -42 -23 -67 -45 -61 -55 4 -6 1 -19 -5 -29 -17 -27 1 -76 29 -80
12 -2 22 -9 22 -16 0 -8 18 -16 46 -20 67 -9 104 -7 104 4 0 6 4 9 9 8 5 -2
23 7 40 20 26 19 30 26 21 37 -7 8 -9 22 -6 33 4 10 -5 40 -19 68 -23 47 -27
49 -72 54 -38 4 -49 9 -52 25 -2 11 -9 24 -17 28 -8 4 -14 15 -14 23 0 15 -45
82 -65 96 -17 13 -53 9 -69 -8z"/>
<path d="M2497 3394 c-4 -4 -7 -14 -7 -23 0 -11 3 -12 11 -4 6 6 10 16 7 23
-2 6 -7 8 -11 4z"/>
<path d="M5316 3374 c-8 -21 1 -34 24 -34 19 0 34 25 24 41 -9 15 -41 10 -48
-7z"/>
<path d="M5527 3364 c-4 -4 -7 -18 -7 -31 0 -21 4 -24 28 -21 21 2 27 8 27 28
0 18 -6 26 -20 28 -12 2 -24 0 -28 -4z"/>
<path d="M6647 3333 c-13 -3 -17 -12 -15 -31 2 -21 8 -27 28 -27 21 0 25 5 25
29 0 31 -8 37 -38 29z"/>
<path d="M2440 3261 c0 -11 -4 -23 -10 -26 -5 -3 -10 -17 -10 -31 0 -14 4 -22
10 -19 6 3 10 17 10 30 0 13 5 27 10 30 6 3 10 13 10 21 0 8 -4 14 -10 14 -5
0 -10 -9 -10 -19z"/>
<path d="M5294 3262 c-5 -4 -20 -24 -33 -44 -24 -41 -58 -58 -72 -37 -5 8 -9
11 -9 7 0 -5 -9 1 -20 12 -26 26 -55 25 -74 -2 -11 -15 -16 -18 -16 -8 -1 9
-7 4 -15 -10 -8 -14 -15 -20 -15 -15 0 6 -5 3 -10 -5 -5 -8 -10 -10 -10 -4 0
6 -7 11 -15 11 -8 0 -15 -4 -15 -9 0 -5 -4 -7 -9 -4 -5 4 -11 1 -13 -5 -6 -18
-84 -21 -98 -4 -7 8 -9 15 -6 15 4 0 0 8 -10 17 -15 16 -17 16 -31 -2 -7 -11
-35 -27 -62 -36 -47 -15 -49 -15 -69 8 -26 29 -77 31 -92 3 -8 -14 -7 -29 5
-56 14 -34 17 -36 55 -32 38 3 40 2 40 -24 0 -45 38 -108 65 -108 23 0 35 -17
35 -51 0 -13 -7 -19 -23 -19 -13 0 -32 -8 -41 -19 -15 -16 -15 -24 -4 -59 10
-32 18 -42 40 -46 15 -3 33 -3 40 -1 20 8 35 -44 31 -105 -2 -30 -5 -83 -6
-116 -1 -34 -8 -68 -15 -77 -17 -21 1 -57 28 -57 37 0 151 61 169 91 l17 28
35 -28 c28 -24 37 -27 56 -18 13 6 23 15 24 21 0 6 5 0 12 -14 l11 -25 4 28
c2 15 8 27 13 27 5 0 9 7 9 15 0 8 3 14 8 14 18 -3 32 2 32 12 0 16 88 112
119 128 14 8 35 14 47 12 11 -1 26 4 33 12 12 15 5 47 -11 47 -6 0 -7 13 -2
33 4 17 6 45 6 60 -1 23 2 26 13 17 24 -20 55 -2 55 32 0 24 3 28 14 19 20
-17 77 5 69 27 -7 20 -54 72 -65 72 -8 0 -39 -55 -34 -61 2 -2 -16 -5 -40 -5
-39 -1 -45 1 -50 22 -3 13 -10 21 -15 18 -5 -3 -9 6 -9 20 0 19 8 28 36 38 26
9 34 17 31 30 -3 10 -2 20 3 23 4 3 11 25 14 50 6 39 4 49 -19 80 -40 52 -108
80 -141 57z"/>
<path d="M5801 3201 c-17 -11 -6 -31 18 -31 23 0 31 9 24 26 -6 16 -22 18 -42
5z"/>
<path d="M4160 3173 c-8 -3 -23 -15 -32 -26 -14 -19 -26 -21 -90 -19 -42 1
-68 -1 -60 -6 7 -5 -11 -7 -43 -4 -37 3 -71 -1 -103 -12 -78 -28 -142 -60
-142 -72 0 -6 -12 -16 -27 -23 -16 -8 -35 -17 -43 -22 -8 -5 -34 -19 -58 -30
-59 -28 -79 -60 -65 -110 8 -31 7 -39 -4 -41 -12 -2 -10 -9 7 -30 20 -26 20
-28 3 -28 -17 -1 -17 -1 0 -14 21 -16 7 -29 -20 -19 -16 6 -16 5 -4 -10 10
-13 10 -17 1 -17 -10 0 -10 -3 -1 -14 9 -11 9 -15 -1 -19 -9 -3 -5 -11 12 -26
14 -13 19 -20 13 -16 -17 8 -16 2 6 -37 10 -18 21 -56 24 -84 13 -115 89 -219
196 -265 28 -12 51 -22 51 -24 0 -1 -6 -15 -14 -31 -19 -38 -18 -181 1 -210 7
-12 15 -36 18 -53 4 -36 21 -61 41 -61 7 0 35 -12 61 -27 43 -25 58 -28 137
-28 86 0 89 1 116 32 28 31 28 34 28 150 -1 65 3 127 7 137 7 15 5 18 -7 13
-12 -4 -14 -1 -10 16 5 19 3 20 -10 10 -12 -10 -20 -7 -46 20 -33 34 -33 47 1
47 14 0 17 5 13 16 -5 13 -2 15 16 11 13 -4 41 3 70 18 45 23 51 24 72 9 16
-10 22 -21 19 -34 -4 -15 0 -20 15 -20 12 0 22 9 26 23 4 16 8 19 14 9 5 -7
27 -14 50 -15 27 -1 44 -7 47 -17 6 -13 8 -13 16 3 6 9 20 17 33 17 31 0 108
51 136 90 16 22 24 51 28 98 2 37 9 73 14 79 6 7 8 20 4 28 -3 9 -2 13 4 10 6
-3 10 -2 10 4 0 5 -9 13 -20 16 -11 4 -18 11 -15 16 4 5 1 9 -6 9 -8 0 -9 4
-1 13 18 22 -4 84 -37 103 -21 12 -27 22 -23 39 5 29 -12 82 -37 114 -17 23
-20 23 -81 13 -35 -7 -66 -15 -69 -20 -10 -15 -51 -21 -58 -9 -4 6 -6 28 -4
48 1 21 -5 54 -13 73 -8 19 -12 36 -10 39 3 3 -21 27 -52 55 -49 44 -55 53
-44 67 11 13 10 19 -5 35 -18 20 -28 23 -55 13z"/>
<path d="M2379 3163 c0 -5 -2 -26 -5 -48 -5 -39 27 -138 39 -118 13 22 17 122
6 146 -11 25 -38 38 -40 20z"/>
<path d="M6557 3073 c-12 -12 -7 -70 7 -82 7 -6 27 -10 44 -9 36 3 48 31 32
72 -8 21 -16 26 -43 26 -19 0 -37 -3 -40 -7z"/>
<path d="M4597 3013 c-15 -15 -7 -43 13 -43 15 0 20 7 20 25 0 24 -18 34 -33
18z"/>
<path d="M5435 2980 c3 -5 8 -10 11 -10 2 0 4 5 4 10 0 6 -5 10 -11 10 -5 0
-7 -4 -4 -10z"/>
<path d="M3224 2952 c-19 -12 -34 -49 -34 -81 0 -59 77 -79 129 -34 28 23 26
66 -3 97 -23 26 -68 34 -92 18z"/>
<path d="M3387 2852 c-24 -26 -21 -47 9 -71 20 -16 31 -18 45 -11 34 19 41 45
18 74 -24 31 -49 33 -72 8z"/>
<path d="M5497 2774 c-14 -15 -6 -43 14 -49 25 -8 42 6 37 31 -3 19 -38 31
-51 18z"/>
<path d="M3260 2677 c0 -8 7 -18 16 -21 11 -4 14 -1 12 11 -4 21 -28 30 -28
10z"/>
<path d="M3223 2565 c-16 -34 -16 -36 7 -60 30 -32 43 -31 69 2 23 28 20 59
-8 80 -28 22 -51 15 -68 -22z"/>
<path d="M5530 2564 c-15 -38 -12 -52 10 -59 11 -3 20 -13 20 -21 0 -8 5 -14
11 -14 6 0 9 7 6 14 -4 9 2 17 14 21 23 8 38 40 31 67 -3 13 -14 18 -43 18
-33 0 -41 -4 -49 -26z"/>
<path d="M3485 2460 c-10 -16 16 -43 28 -31 11 11 2 41 -12 41 -5 0 -13 -5
-16 -10z"/>
<path d="M3346 2323 c-4 -9 -2 -21 4 -27 13 -13 46 17 36 33 -11 16 -33 13
-40 -6z"/>
<path d="M3114 2319 c-16 -5 -41 -20 -53 -33 -21 -22 -23 -32 -18 -77 5 -42 3
-57 -13 -78 -34 -49 -34 -74 -2 -109 34 -36 56 -39 106 -15 36 17 53 54 42 90
-3 13 7 26 36 46 36 26 39 31 34 60 -3 18 -9 48 -12 68 -5 30 -12 38 -33 42
-14 3 -33 8 -41 10 -8 3 -29 1 -46 -4z"/>
<path d="M4802 2291 c-8 -5 -12 -22 -10 -42 3 -30 6 -34 33 -35 31 0 45 10 45
36 0 33 -42 58 -68 41z"/>
<path d="M4271 2171 c-24 -21 -29 -71 -7 -71 25 0 46 12 46 26 0 8 5 14 10 14
17 0 11 29 -9 39 -14 8 -24 6 -40 -8z"/>
<path d="M3483 2084 c-3 -8 2 -23 11 -32 15 -15 17 -15 32 0 21 21 11 48 -16
48 -11 0 -23 -7 -27 -16z"/>
<path d="M4766 2073 c-11 -3 -37 -16 -57 -29 -44 -27 -58 -73 -40 -125 16 -47
6 -47 -23 0 -67 105 -234 92 -252 -20 -4 -21 -10 -39 -15 -39 -12 0 -12 -47 0
-54 4 -3 7 -16 4 -28 -4 -27 1 -35 49 -71 68 -51 163 -72 187 -43 7 8 20 12
30 9 26 -7 36 14 21 43 -11 20 -11 31 1 66 8 24 13 46 12 50 -1 3 4 11 12 18
11 9 22 8 50 -6 35 -16 37 -16 63 5 15 11 37 26 50 31 51 22 43 111 -15 172
-26 27 -38 31 -77 21z"/>
<path d="M5223 2004 c-8 -21 13 -42 28 -27 13 13 5 43 -11 43 -6 0 -13 -7 -17
-16z"/>
<path d="M5282 1966 c1 -10 8 -17 13 -17 15 1 12 24 -3 29 -9 3 -13 -2 -10
-12z"/>
<path d="M3540 1901 c-12 -23 -3 -54 14 -48 14 5 21 67 7 67 -6 0 -15 -9 -21
-19z"/>
<path d="M5277 1853 c-4 -3 -7 -11 -7 -17 0 -6 5 -5 12 2 6 6 9 14 7 17 -3 3
-9 2 -12 -2z"/>
<path d="M4903 1838 c-94 -16 -202 -88 -203 -136 -1 -16 -8 -99 -14 -150 -1
-12 -8 -28 -14 -34 -19 -19 -14 -24 25 -26 21 -2 45 -10 54 -18 28 -25 132
-15 203 21 82 41 116 86 126 166 4 35 9 69 10 74 5 20 0 36 -9 31 -5 -3 -9 10
-9 30 0 19 -2 37 -3 39 -9 7 -128 10 -166 3z"/>
<path d="M4127 1747 c-3 -8 -2 -20 3 -27 11 -18 42 -4 38 17 -4 22 -34 29 -41
10z"/>
<path d="M4557 1593 c-15 -15 -6 -52 14 -58 28 -9 53 16 44 44 -6 20 -43 29
-58 14z"/>
<path d="M5475 1519 c-12 -6 -26 -18 -32 -28 -16 -25 8 -111 36 -130 28 -18
94 -16 126 5 22 14 25 24 25 75 0 48 -4 60 -22 73 -25 18 -101 20 -133 5z"/>
<path d="M4480 1500 c0 -5 5 -10 10 -10 6 0 10 5 10 10 0 6 -4 10 -10 10 -5 0
-10 -4 -10 -10z"/>
<path d="M4950 1425 c-10 -12 -10 -15 4 -15 9 0 16 7 16 15 0 8 -2 15 -4 15
-2 0 -9 -7 -16 -15z"/>
<path d="M4449 1217 c-16 -12 -15 -37 2 -37 6 0 8 4 5 9 -3 5 1 14 8 20 10 8
16 9 21 1 3 -5 0 -10 -7 -10 -8 0 -14 -9 -14 -20 0 -11 2 -20 4 -20 9 0 31 29
34 46 4 23 -29 30 -53 11z"/>
<path d="M4437 956 c-15 -11 -15 -15 -3 -25 15 -12 28 -2 32 27 3 15 -6 15
-29 -2z"/>
<path d="M4605 939 c-4 -6 -16 -9 -26 -6 -27 7 -34 -11 -13 -34 9 -10 14 -19
10 -19 -4 0 -1 -6 6 -14 13 -14 32 -11 23 4 -3 5 0 12 6 16 8 4 9 3 5 -4 -4
-7 -3 -12 3 -12 19 0 24 48 8 65 -11 10 -18 12 -22 4z"/>
<path d="M4313 790 c-35 -14 -47 -47 -28 -76 18 -27 49 -26 73 4 16 21 15 36
-5 60 -14 16 -23 18 -40 12z"/>
<path d="M4153 766 c-50 -13 -60 -22 -64 -56 -4 -42 12 -81 37 -90 31 -12 85
-2 102 18 19 25 14 84 -11 113 -21 24 -25 25 -64 15z"/>
<path d="M4740 736 c7 -7 13 -7 20 0 6 6 3 10 -10 10 -13 0 -16 -4 -10 -10z"/>
<path d="M4766 628 c3 -5 10 -6 15 -3 13 9 11 12 -6 12 -8 0 -12 -4 -9 -9z"/>
<path d="M4570 591 c-18 -35 -9 -118 11 -105 5 3 7 10 4 15 -4 5 -3 9 2 9 4 0
9 23 11 50 3 52 -9 65 -28 31z"/>
<path d="M4707 506 c-3 -8 -2 -18 3 -21 13 -8 20 9 11 24 -6 10 -10 9 -14 -3z"/>
</g>
</svg>
